PathFileType	4	(X/Y/Z)	C:\Users\WrightLab\Desktop\Jo\P4V16.trc
DataRate	CameraRate	NumFrames	NumMarkers	Units	OrigDataRate	OrigDataStartFrame	OrigNumFrames
100.00	100.00	       16	19	mm	100.00	66	       525
Frame#	Time	Headset_Front			Headset_Back			Headset_Left			Headset_Right			Left_Shoulder			Right_Shoulder			Sternum			C7			Left Elbow			Right Elbow			Left Wrist			Right Wrist			Left ASIS			Right ASIS			S2			Left Knee			Right Knee			Left Ankle			Right Ankle			
		X1	Y1	Z1	X2	Y2	Z2	X3	Y3	Z3	X4	Y4	Z4	X5	Y5	Z5	X6	Y6	Z6	X7	Y7	Z7	X8	Y8	Z8	X9	Y9	Z9	X10	Y10	Z10	X11	Y11	Z11	X12	Y12	Z12	X13	Y13	Z13	X14	Y14	Z14	X15	Y15	Z15	X16	Y16	Z16	X17	Y17	Z17	X18	Y18	Z18	X19	Y19	Z19	

66	0.650	-599.81726	1663.26123	-959.11194	-700.42505	518.74969	-1231.37036							-701.75916	1482.89917	-1248.06384	-695.04297	1680.80273	-1067.39014	-608.25037	1430.91931	-1070.70325	-547.96490	1527.90515	-1220.99573	-286.34299	1166.69666	-1045.22009	-840.76935	1133.32581	-1247.29553	-362.31946	878.82996	-944.72144	-880.41718	909.34210	-1047.15747	-454.63693	1003.43378	-1008.92548	-729.97540	1011.22498	-1198.88062				-563.93878	566.63477	-877.71478				-528.00250	78.30269	-1052.93469				
67	0.660	-604.64441	1662.32935	-952.15820	-702.74933	517.94092	-1228.17200							-706.20410	1481.61829	-1240.83264	-699.32837	1680.12170	-1060.40161	-613.05145	1429.31982	-1063.56641	-552.47412	1526.96960	-1213.62146	-289.76068	1165.31689	-1038.45398	-845.91101	1132.10510	-1235.90222	-362.77353	876.49237	-945.61572	-883.69659	913.63348	-1030.87158	-459.15323	1003.12677	-1000.68451	-734.79053	1008.36066	-1188.01550				-570.88458	566.07294	-870.40009				-547.42896	70.04681	-1027.46692				
68	0.670	-609.34692	1661.68542	-945.10400	-705.10175	517.39099	-1224.34448							-710.51849	1480.32703	-1233.39197	-703.47131	1679.44189	-1052.10571	-616.98999	1429.04419	-1055.64990	-556.78326	1526.12720	-1205.98486	-293.36313	1165.18726	-1033.38586	-850.66064	1131.32690	-1225.09277	-363.87457	874.17413	-942.08612	-886.30695	917.97235	-1013.51318	-464.68640	1001.14709	-992.86127	-738.80414	1008.67596	-1183.85681				-577.44067	564.59985	-862.96997				-566.69952	61.89679	-999.00275				
69	0.680	-614.07965	1660.53027	-937.71808	-707.28613	517.16284	-1221.30200							-714.60291	1479.19873	-1225.64734	-707.73120	1678.37549	-1044.91626	-620.56671	1426.88538	-1047.57446	-561.15155	1524.98816	-1198.49133	-296.62436	1163.89246	-1026.35950	-855.24963	1130.32922	-1213.64343	-365.12335	872.42377	-938.58215	-888.19629	921.03412	-997.05646	-470.58200	999.28137	-986.17047	-743.70624	1007.72046	-1177.20801				-582.59033	563.31085	-856.21985				-584.01331	55.72001	-970.97479				
70	0.690	-618.70398	1659.43420	-929.95551	-709.63245	515.90765	-1217.57935							-718.63678	1477.87842	-1218.35535				-624.07770	1426.18860	-1040.57141				-299.87894	1163.48438	-1022.09888	-859.55798	1129.48560	-1202.38501	-366.44772	869.54681	-934.93268	-890.91492	927.47253	-981.01489	-475.33817	998.52551	-976.98785	-748.42035	1005.69061	-1167.92786				-587.31799	561.20557	-849.92047				-603.63843	48.55382	-943.83539				
71	0.700	-623.18896	1658.23853	-922.45526	-711.87152	514.92584	-1213.20581							-722.75580	1476.20496	-1210.42200	-715.77960	1676.29761	-1029.04858	-629.15802	1424.96240	-1031.86194	-569.41766	1522.29919	-1182.62207	-302.70752	1162.22510	-1015.25464	-863.68024	1128.56128	-1191.11218	-367.77457	868.10260	-932.71765	-892.82178	931.27850	-963.95636	-480.94879	997.02466	-968.05505	-753.01752	1005.41602	-1162.39124				-591.89606	558.58533	-844.62750				-622.30109	43.35445	-914.26410				
72	0.710	-627.48230	1657.16199	-914.57245	-714.30231	514.19757	-1209.33496							-726.71234	1474.57849	-1202.68481	-719.82837	1674.75269	-1020.93488	-632.68854	1423.00171	-1024.07935	-573.33014	1520.98608	-1174.79199	-306.08881	1161.54248	-1009.42297	-867.76233	1127.26416	-1179.03015	-368.87769	865.66119	-927.65668	-894.52100	935.35480	-947.57880	-485.92050	994.47144	-960.21973	-758.52203	1003.06604	-1152.86096				-595.69672	555.11615	-839.05182				-640.48785	37.71156	-889.12152				
73	0.720	-631.73254	1655.82886	-907.25305	-716.51947	513.81207	-1205.62244							-730.61713	1473.05884	-1194.76904	-723.69604	1673.43152	-1012.78235	-637.06274	1422.13574	-1016.42621	-577.26605	1519.32983	-1166.38391	-309.53723	1159.55786	-1001.77179	-871.54395	1126.27747	-1167.67615	-369.96765	863.38757	-922.53717	-895.90723	940.17743	-931.48346	-490.90561	992.05359	-952.26276	-762.59406	1003.02734	-1147.49524				-599.63110	550.96747	-833.55963				-659.14923	34.25616	-862.79889				
74	0.730	-615.02161	1723.35193	-1203.80957	-718.56342	512.16010	-1200.76160							-734.26288	1471.64722	-1186.72546	-727.37671	1672.17261	-1004.26208	-641.58331	1420.80737	-1007.72876	-581.04559	1517.48193	-1158.36902	-312.65155	1158.81946	-995.75464	-875.37384	1125.45154	-1155.76733	-371.36896	861.88226	-919.10101	-896.81201	942.91479	-915.69012	-496.38153	989.52454	-944.75171							-602.53442	546.05573	-827.76385				-676.65784	32.69019	-835.55011				
75	0.740	-618.78131	1721.38770	-1195.45654	-721.17883	511.64716	-1196.89441							-737.98895	1470.01404	-1178.47522	-731.01215	1670.47437	-996.73175	-646.48511	1419.96777	-1000.03589	-584.78998	1515.64673	-1150.04224	-315.64560	1156.70178	-987.12262	-878.83984	1124.32300	-1143.79321	-372.91318	859.07385	-913.62372	-897.53668	947.71149	-899.26086	-501.07883	987.06720	-935.07202	-773.65479	998.39886	-1130.38281				-605.41211	541.56659	-822.15094				-692.68420	31.45624	-809.27777				
76	0.750	-622.31073	1719.39954	-1187.20825	-723.91534	510.12704	-1191.60168							-741.66174	1468.25891	-1170.36987	-734.63538	1668.55249	-988.25616	-649.46997	1418.15613	-991.73151	-588.24207	1513.95630	-1141.77209	-318.82913	1155.93750	-980.26709	-882.40436	1123.27954	-1132.45972	-374.31564	857.29089	-907.53442	-897.94287	951.17737	-883.83856	-505.80078	984.37225	-926.18372	-777.75122	996.60431	-1120.70349				-608.94196	536.32593	-818.97284				-709.36426	30.49646	-786.23303				
77	0.760	-625.72070	1717.34570	-1179.38208	-726.14868	509.21469	-1186.65332							-745.29468	1466.28625	-1161.55652	-738.07385	1666.68250	-979.83594	-653.10797	1415.66003	-982.60968	-591.73706	1511.81238	-1133.08582	-321.64014	1154.16089	-973.25287	-885.56116	1121.85596	-1120.17859	-375.85309	855.07642	-900.43909	-898.39661	956.23810	-868.54590	-510.94885	981.24377	-916.99463	-783.21997	995.13202	-1111.38477				-612.02075	530.98236	-815.11633				-723.29089	32.66078	-763.97681				
78	0.770	-628.93170	1715.33228	-1170.57385	-728.90277	508.13754	-1181.56750							-748.73767	1464.78821	-1153.38257				-655.37830	1413.30823	-974.02844	-595.07587	1509.73059	-1125.08508	-324.37057	1151.82507	-964.17761	-888.84247	1120.74207	-1108.08240	-377.44644	851.50183	-896.41364	-898.82733	959.91064	-853.40631	-516.09637	978.19739	-908.57489	-788.10291	993.44257	-1102.18408				-615.60077	525.69366	-809.92682				-737.39063	33.02523	-742.53076				
79	0.780	-631.99078	1713.27771	-1161.84729	-731.66895	507.46429	-1176.20923							-752.17487	1462.89893	-1144.36951	-744.55676	1662.91394	-963.18896	-659.38867	1412.78320	-965.22815	-598.41943	1507.27588	-1116.29395	-327.11032	1150.41748	-957.76642	-891.68695	1119.24976	-1095.64417	-379.17868	849.73511	-885.67029	-898.09644	963.37775	-838.68250	-520.86670	975.83380	-897.91705	-792.40582	991.23181	-1092.08813				-619.01587	521.37854	-803.83734				-749.23120	35.51148	-722.81366				
80	0.790	-634.87451	1711.34338	-1153.22168	-733.77661	505.91129	-1170.00488							-755.57892	1460.78735	-1135.32043	-747.61139	1661.10181	-954.67358	-663.25366	1410.52283	-955.95508	-601.60638	1505.02600	-1107.33435	-330.06506	1147.98352	-950.15820	-894.61804	1117.88647	-1083.28381	-380.38498	847.65662	-880.57721	-897.55554	966.14673	-823.42706	-524.99841	972.57788	-888.66156	-797.00421	989.54944	-1082.62695				-621.86780	517.44733	-796.20020				-761.27252	36.41799	-704.63104				
81	0.800	-637.67737	1709.31189	-1145.03186	-736.86328	505.13379	-1164.14941							-759.02051	1458.67285	-1126.12585	-750.66864	1659.07202	-945.99634	-665.56616	1408.04736	-947.11035	-604.79272	1502.73486	-1098.46875	-332.97363	1145.74976	-939.79590	-897.54962	1116.52539	-1070.42078	-382.51608	844.96759	-872.57806	-897.48322	968.81720	-808.52484	-529.55994	970.28052	-880.09900	-802.07996	987.63593	-1072.69824				-626.39459	514.16089	-788.56805				-770.53442	36.23124	-689.61810				
